<svg xmlns="http://www.w3.org/2000/svg" version="1" viewBox="0 0 100 125">
  <path fill="#fcb827" d="M88 51h1l-1-1zM87 38l-4-2 1 1a1200 1200 0 0 0 2 3h-1v-1h1l1 3v2l1 1h-1l1 2v-3-3l-1-3zM87 45zM32 15zM54 15zM67 87h0zM88 65zM76 73zM80 66l1-1-1 1zM88 65zM66 81l-1-1 1 1zM80 63h0zM86 37l1 1-1-1zM24 71zM47 84zM39 82h1-1zM53 83v-1 1z"/>
  <path fill="#fcb827" d="M59 83v-1h-2v1l-1-1v1h-6l1 1h-1l-1 1-1-2-1 1h-2l1-1h-1l-1-1h-1l-1 1 1-1h-2-1l-1 1v-1h-2c-1-1-1 0-1 1l-2-1h-2c-1-1 0-1 1-2v-1h-3l-1-2-1-3-1 1h-1v-1h-1c-2-1 1-2-1-3h-1l-1-2h1v1c1-1-1-1-1-2h-2v-1c-1-1 1-1 1-1l-2-1 1-1h-1v-1l-1-1-1-1-1-1v-2l2-1c1-1-1 0-1-1h1l-1-2v1l1-3h-2l1-1v-1l-1-1c1 1 1-1 2-1h-1l-1-1h2l-1-3v-4a222 222 0 0 0 0 1c1-1-1-2-1-3l1-1h1l-1-3c1 0 1 2 2 1v-1-1h2l1-2 1 1v-3h1l-1-3 1-1 1 1h1l1-3v2h1l2-2v1l1-4v2l2-1 3-2v2l1-1 1-1 1-1h2v-1l1-1h4l1-1h3l1 1c0-1 0-2 2-1l-1 1 1-1c0-1-2-1 0-2 1 1 1-1 2 1l-1 1h4l3 2h5l-2 2h8c0 1 1 1-1 1 2 1 1 3 2 3h1c1 1 0 0-1 1l2 1h1l1 1 1 1a394 394 0 0 0 1 1h1l-1 1h2l1 1v1h1l1 1c0 1-2-1-1 1h-1l1 2 1-1 1 2 1 1-1-1v-1l-1-1h1l-1-1v-2l-2-1c0-1 2 0 1-1l-9-9h1-2l-1-2-3-1h1l-3-2-1-1h-2l-2-1h-2 1l-2 2v-3 1-1h-3l-2-1-1 1v-1c-1-1-2 1-3 1l1-1h-4l-4 1v0h-2l-2 1-3 1h-2c-1 2 0 2-2 3v-2l-3 1-2 2v1h-2 1c0 2-1 1-2 2v-1l-1 2h-1l1 1h-2 1c-1 1-1 2-2 1l-1 1-1 2 1 1h-1l-1 1-1 1h1l-1 1-1-1v3l-1 3h-1l-1 3v3l-1 1v1l-1 3v7l1 1 1 2h-1v3-1l1 4 1 2v2l2 2v1h1l-1 1 2 2 1 3 1-1v2l2 2 4 2 1 2c1 0 2 1 1 2l4 1 4 2h3c1 2 2 0 3 1l1 1h1a19 19 0 0 0 4 1 83 83 0 0 1 7-1c1 0-1-1 1-1v2l2-1v1l1-1h2v-1h2l1-1h1s1 0 0 0h2l1-1v0-1h3l1-2c1 1 2-1 4-1l2-2 1-1c1-1 2-2 1-3h2l1-2v-1h2c-1-2 0-3 1-4l1-4h2l-1-2 1 1 1-3-1-3h1v1l1-3v-3l-1-2-3-1c-1 0-2-1-2 1v2h1l-1 1-2 1h1v1l-1-1 1 1v1h-1c0 1 2 0 1 2l-1-1v3h-1 1l-1 1 1 1h-1 1c1 1-1 1-2 2l-1 2c-1 2 1 0 1 2-1 1-2-1-3 1 1-1 1 2 1 3l-1-1v-1l-1 1h1c1 1-1 1-1 2l-2-3v3h-1v-1l-1 2-1 3-1-2-1 1-1-1v3l1-1-1 2v-1h-1l1 1-1 1-1-1h-1v-1 1l-1-1v3h-1v-1l-1-1-3 2zM62 81l1-1-1 1zM36 21zM41 18s0 1 0 0zM20 64zM22 35l-1-2 1 2zM17 44h0zM21 66l-1-2 1 2zM48 16h-1 1zM42 17v0zM24 27z"/>
  <text x="50%" y="100" font-size="4" font-weight="bold" font-family="Arial, Sans-serif">
    Created by Vignesh Raja
  </text>
  <text x="50%" y="105" font-size="4" font-weight="bold" font-family="Arial, Sans-serif">
    from the Noun Project
  </text>
</svg>
